<mxfile host="app.diagrams.net" modified="2020-12-29T13:23:22.309Z" agent="5.0 (X11; Linux x86_64) AppleWebKit/537.36 (KHTML, like Gecko) Chrome/87.0.4280.66 Safari/537.36" etag="Mt-YAwQ6FTb6G3sdBwFc" version="14.1.3" type="github">
  <diagram id="-hMiYwZMU71feqzi6FF7" name="Page-1">
    <mxGraphModel dx="2019" dy="1105" grid="1" gridSize="10" guides="1" tooltips="1" connect="1" arrows="1" fold="1" page="1" pageScale="1" pageWidth="850" pageHeight="1100" math="0" shadow="0">
      <root>
        <mxCell id="0" />
        <mxCell id="1" parent="0" />
        <mxCell id="i7k8HtbTjAfTRzKyq_zg-13" style="edgeStyle=orthogonalEdgeStyle;rounded=0;orthogonalLoop=1;jettySize=auto;html=1;entryX=0.5;entryY=0;entryDx=0;entryDy=0;" edge="1" parent="1" source="i7k8HtbTjAfTRzKyq_zg-1" target="i7k8HtbTjAfTRzKyq_zg-2">
          <mxGeometry relative="1" as="geometry" />
        </mxCell>
        <mxCell id="i7k8HtbTjAfTRzKyq_zg-1" value="HTTP Request" style="rounded=1;whiteSpace=wrap;html=1;arcSize=50;fillColor=#d5e8d4;strokeColor=#82b366;" vertex="1" parent="1">
          <mxGeometry x="105" y="40" width="120" height="60" as="geometry" />
        </mxCell>
        <mxCell id="i7k8HtbTjAfTRzKyq_zg-14" style="edgeStyle=orthogonalEdgeStyle;rounded=0;orthogonalLoop=1;jettySize=auto;html=1;entryX=0.5;entryY=0;entryDx=0;entryDy=0;" edge="1" parent="1" source="i7k8HtbTjAfTRzKyq_zg-2" target="i7k8HtbTjAfTRzKyq_zg-3">
          <mxGeometry relative="1" as="geometry" />
        </mxCell>
        <mxCell id="i7k8HtbTjAfTRzKyq_zg-25" style="edgeStyle=orthogonalEdgeStyle;rounded=0;orthogonalLoop=1;jettySize=auto;html=1;entryX=0;entryY=0.5;entryDx=0;entryDy=0;" edge="1" parent="1" source="i7k8HtbTjAfTRzKyq_zg-2" target="i7k8HtbTjAfTRzKyq_zg-6">
          <mxGeometry relative="1" as="geometry" />
        </mxCell>
        <mxCell id="i7k8HtbTjAfTRzKyq_zg-2" value="Is an SVG being&lt;br&gt;requested?" style="rhombus;whiteSpace=wrap;html=1;fillColor=#ffe6cc;strokeColor=#d79b00;" vertex="1" parent="1">
          <mxGeometry x="80" y="160" width="170" height="150" as="geometry" />
        </mxCell>
        <mxCell id="i7k8HtbTjAfTRzKyq_zg-15" style="edgeStyle=orthogonalEdgeStyle;rounded=0;orthogonalLoop=1;jettySize=auto;html=1;entryX=0.5;entryY=0;entryDx=0;entryDy=0;" edge="1" parent="1" source="i7k8HtbTjAfTRzKyq_zg-3" target="i7k8HtbTjAfTRzKyq_zg-4">
          <mxGeometry relative="1" as="geometry" />
        </mxCell>
        <mxCell id="i7k8HtbTjAfTRzKyq_zg-3" value="Retrieve SVG&lt;br&gt;from S3" style="rounded=0;whiteSpace=wrap;html=1;fillColor=#dae8fc;strokeColor=#6c8ebf;" vertex="1" parent="1">
          <mxGeometry x="105" y="380" width="120" height="60" as="geometry" />
        </mxCell>
        <mxCell id="i7k8HtbTjAfTRzKyq_zg-16" style="edgeStyle=orthogonalEdgeStyle;rounded=0;orthogonalLoop=1;jettySize=auto;html=1;exitX=0.5;exitY=1;exitDx=0;exitDy=0;" edge="1" parent="1" source="i7k8HtbTjAfTRzKyq_zg-4" target="i7k8HtbTjAfTRzKyq_zg-5">
          <mxGeometry relative="1" as="geometry">
            <Array as="points">
              <mxPoint x="165" y="720" />
              <mxPoint x="420" y="720" />
            </Array>
          </mxGeometry>
        </mxCell>
        <mxCell id="i7k8HtbTjAfTRzKyq_zg-4" value="Return SVG in&lt;br&gt;HTTP Reesponse" style="rounded=0;whiteSpace=wrap;html=1;fillColor=#dae8fc;strokeColor=#6c8ebf;" vertex="1" parent="1">
          <mxGeometry x="105" y="520" width="120" height="60" as="geometry" />
        </mxCell>
        <mxCell id="i7k8HtbTjAfTRzKyq_zg-5" value="End" style="rounded=1;whiteSpace=wrap;html=1;arcSize=50;fillColor=#f8cecc;strokeColor=#b85450;" vertex="1" parent="1">
          <mxGeometry x="360" y="760" width="120" height="60" as="geometry" />
        </mxCell>
        <mxCell id="i7k8HtbTjAfTRzKyq_zg-23" style="edgeStyle=orthogonalEdgeStyle;rounded=0;orthogonalLoop=1;jettySize=auto;html=1;entryX=0.5;entryY=0;entryDx=0;entryDy=0;" edge="1" parent="1" source="i7k8HtbTjAfTRzKyq_zg-6" target="i7k8HtbTjAfTRzKyq_zg-7">
          <mxGeometry relative="1" as="geometry" />
        </mxCell>
        <mxCell id="i7k8HtbTjAfTRzKyq_zg-24" style="edgeStyle=orthogonalEdgeStyle;rounded=0;orthogonalLoop=1;jettySize=auto;html=1;entryX=0;entryY=0.5;entryDx=0;entryDy=0;" edge="1" parent="1" source="i7k8HtbTjAfTRzKyq_zg-6" target="i7k8HtbTjAfTRzKyq_zg-9">
          <mxGeometry relative="1" as="geometry" />
        </mxCell>
        <mxCell id="i7k8HtbTjAfTRzKyq_zg-6" value="Does the requested&lt;br&gt;image exist in S3?" style="rhombus;whiteSpace=wrap;html=1;fillColor=#ffe6cc;strokeColor=#d79b00;" vertex="1" parent="1">
          <mxGeometry x="335" y="160" width="170" height="150" as="geometry" />
        </mxCell>
        <mxCell id="i7k8HtbTjAfTRzKyq_zg-22" style="edgeStyle=orthogonalEdgeStyle;rounded=0;orthogonalLoop=1;jettySize=auto;html=1;" edge="1" parent="1" source="i7k8HtbTjAfTRzKyq_zg-7" target="i7k8HtbTjAfTRzKyq_zg-8">
          <mxGeometry relative="1" as="geometry" />
        </mxCell>
        <mxCell id="i7k8HtbTjAfTRzKyq_zg-7" value="Retrieve image&lt;br&gt;from S3" style="rounded=0;whiteSpace=wrap;html=1;fillColor=#dae8fc;strokeColor=#6c8ebf;" vertex="1" parent="1">
          <mxGeometry x="360" y="380" width="120" height="60" as="geometry" />
        </mxCell>
        <mxCell id="i7k8HtbTjAfTRzKyq_zg-30" style="edgeStyle=orthogonalEdgeStyle;rounded=0;orthogonalLoop=1;jettySize=auto;html=1;" edge="1" parent="1" source="i7k8HtbTjAfTRzKyq_zg-8" target="i7k8HtbTjAfTRzKyq_zg-5">
          <mxGeometry relative="1" as="geometry" />
        </mxCell>
        <mxCell id="i7k8HtbTjAfTRzKyq_zg-8" value="Return image in&lt;br&gt;HTTP Reesponse" style="rounded=0;whiteSpace=wrap;html=1;fillColor=#dae8fc;strokeColor=#6c8ebf;" vertex="1" parent="1">
          <mxGeometry x="360" y="520" width="120" height="60" as="geometry" />
        </mxCell>
        <mxCell id="i7k8HtbTjAfTRzKyq_zg-21" style="edgeStyle=orthogonalEdgeStyle;rounded=0;orthogonalLoop=1;jettySize=auto;html=1;" edge="1" parent="1" source="i7k8HtbTjAfTRzKyq_zg-9" target="i7k8HtbTjAfTRzKyq_zg-10">
          <mxGeometry relative="1" as="geometry" />
        </mxCell>
        <mxCell id="i7k8HtbTjAfTRzKyq_zg-9" value="Retrieve corresponding SVG&lt;br&gt;from S3" style="rounded=0;whiteSpace=wrap;html=1;fillColor=#dae8fc;strokeColor=#6c8ebf;" vertex="1" parent="1">
          <mxGeometry x="600" y="205" width="120" height="60" as="geometry" />
        </mxCell>
        <mxCell id="i7k8HtbTjAfTRzKyq_zg-20" style="edgeStyle=orthogonalEdgeStyle;rounded=0;orthogonalLoop=1;jettySize=auto;html=1;entryX=0.5;entryY=0;entryDx=0;entryDy=0;" edge="1" parent="1" source="i7k8HtbTjAfTRzKyq_zg-10" target="i7k8HtbTjAfTRzKyq_zg-11">
          <mxGeometry relative="1" as="geometry" />
        </mxCell>
        <mxCell id="i7k8HtbTjAfTRzKyq_zg-10" value="Use Sharp to convert and size SVG to required size/format." style="rounded=0;whiteSpace=wrap;html=1;fillColor=#dae8fc;strokeColor=#6c8ebf;" vertex="1" parent="1">
          <mxGeometry x="560" y="380" width="200" height="60" as="geometry" />
        </mxCell>
        <mxCell id="i7k8HtbTjAfTRzKyq_zg-19" style="edgeStyle=orthogonalEdgeStyle;rounded=0;orthogonalLoop=1;jettySize=auto;html=1;entryX=0.5;entryY=0;entryDx=0;entryDy=0;" edge="1" parent="1" source="i7k8HtbTjAfTRzKyq_zg-11" target="i7k8HtbTjAfTRzKyq_zg-12">
          <mxGeometry relative="1" as="geometry" />
        </mxCell>
        <mxCell id="i7k8HtbTjAfTRzKyq_zg-11" value="Store the image&lt;br&gt;in S3" style="rounded=0;whiteSpace=wrap;html=1;fillColor=#dae8fc;strokeColor=#6c8ebf;" vertex="1" parent="1">
          <mxGeometry x="600" y="520" width="120" height="60" as="geometry" />
        </mxCell>
        <mxCell id="i7k8HtbTjAfTRzKyq_zg-31" style="edgeStyle=orthogonalEdgeStyle;rounded=0;orthogonalLoop=1;jettySize=auto;html=1;entryX=0.5;entryY=0;entryDx=0;entryDy=0;" edge="1" parent="1" source="i7k8HtbTjAfTRzKyq_zg-12" target="i7k8HtbTjAfTRzKyq_zg-5">
          <mxGeometry relative="1" as="geometry">
            <mxPoint x="660" y="760" as="targetPoint" />
            <Array as="points">
              <mxPoint x="660" y="720" />
              <mxPoint x="420" y="720" />
            </Array>
          </mxGeometry>
        </mxCell>
        <mxCell id="i7k8HtbTjAfTRzKyq_zg-12" value="Return image in&lt;br&gt;HTTP Reesponse" style="rounded=0;whiteSpace=wrap;html=1;fillColor=#dae8fc;strokeColor=#6c8ebf;" vertex="1" parent="1">
          <mxGeometry x="600" y="640" width="120" height="60" as="geometry" />
        </mxCell>
        <mxCell id="i7k8HtbTjAfTRzKyq_zg-26" value="Yes, SVG" style="text;html=1;align=center;verticalAlign=middle;resizable=0;points=[];autosize=1;" vertex="1" parent="1">
          <mxGeometry x="170" y="340" width="70" height="20" as="geometry" />
        </mxCell>
        <mxCell id="i7k8HtbTjAfTRzKyq_zg-27" value="No (e.g. PNG, etc)" style="text;html=1;align=center;verticalAlign=middle;resizable=0;points=[];autosize=1;" vertex="1" parent="1">
          <mxGeometry x="240" y="200" width="110" height="20" as="geometry" />
        </mxCell>
        <mxCell id="i7k8HtbTjAfTRzKyq_zg-28" value="Yes" style="text;html=1;align=center;verticalAlign=middle;resizable=0;points=[];autosize=1;" vertex="1" parent="1">
          <mxGeometry x="420" y="340" width="40" height="20" as="geometry" />
        </mxCell>
        <mxCell id="i7k8HtbTjAfTRzKyq_zg-29" value="No" style="text;html=1;align=center;verticalAlign=middle;resizable=0;points=[];autosize=1;" vertex="1" parent="1">
          <mxGeometry x="535" y="210" width="30" height="20" as="geometry" />
        </mxCell>
      </root>
    </mxGraphModel>
  </diagram>
</mxfile>
